# xmcd
#
# Track frame offsets:
#	150
#	12387
#	25452
#	41740
#	58535
#	70735
#	87042
#	102942
#	116067
#	127805
#	144117
#	160382
#
# Disc length: 2360 seconds
#
# Revision: 1
# Processed by: cddbd v1.5.2PL0 Copyright (c) Steve Scherf et al.
# Submitted via: audiograbber 1.83.01
#
DISCID=9909360c
DTITLE=Various Artist - 1990's Country
DYEAR=2000
DGENRE=Country
TTITLE0=Diamond Rio - This Romeo Ain't Got Julie Yet
TTITLE1=John Anderson - Straight Tequila Night
TTITLE2=Pam Tillis - One Of Those Things
TTITLE3=Shenandoah - I Want To Be Loved Like That
TTITLE4=Ty England - Should've Asked Her Faster
TTITLE5=Lorrie Morgan - A Picture Of Me (Without You)
TTITLE6=Doug Supernaw - Reno
TTITLE7=Lari White - Don't Fence Me In (Reprise)
TTITLE8=Robert Ellis Orrall - Boom! It Was Over
TTITLE9=Steve Wariner - The Tips Of My Fingers
TTITLE10=Lee Roy Parnell - What Kind Of Fool Do You Think I am
TTITLE11=Restless Heart - When She Cries
EXTD=
EXTT0=
EXTT1=
EXTT2=
EXTT3=
EXTT4=
EXTT5=
EXTT6=
EXTT7=
EXTT8=
EXTT9=
EXTT10=
EXTT11=
PLAYORDER=
